<svg xmlns="http://www.w3.org/2000/svg" width="47" height="37.8" viewBox="0 0 47 37.8">
  <g id="Files_Folder29" transform="translate(-0.5 -3.5)">
    <g id="Сгруппировать_1" data-name="Сгруппировать 1" transform="translate(1 4)">
      <path id="Контур_116" data-name="Контур 116" d="M25.564,13.2a1.538,1.538,0,0,1-1.533,1.533H2.533A1.538,1.538,0,0,1,1,13.2V5.533A1.538,1.538,0,0,1,2.533,4H19.4a1.518,1.518,0,0,1,1.319.751l4.462,7.437A1.558,1.558,0,0,1,25.564,13.2Z" transform="translate(-1 -4)" fill="#4cf209" stroke="#000" stroke-width="1"/>
    </g>
    <g id="Сгруппировать_2" data-name="Сгруппировать 2" transform="translate(1 11.667)">
      <path id="Контур_117" data-name="Контур 117" d="M47,10.533V36.6a1.538,1.538,0,0,1-1.533,1.533H2.533A1.538,1.538,0,0,1,1,36.6V9H45.467A1.538,1.538,0,0,1,47,10.533Z" transform="translate(-1 -9)" fill="#4cf209" stroke="#000" stroke-width="1"/>
    </g>
  </g>
</svg>
