<svg id="Компонент_11_1" data-name="Компонент 11 – 1" xmlns="http://www.w3.org/2000/svg" width="29.339" height="36.8" viewBox="0 0 29.339 36.8">
  <g id="Многоугольник_4" data-name="Многоугольник 4" transform="matrix(-0.588, -0.809, 0.809, -0.588, 16.706, 11)" fill="#fff">
    <path d="M 2.190984964370728 2.5 L 0.8090149760246277 2.5 L 1.5 1.118029952049255 L 2.190984964370728 2.5 Z" stroke="none"/>
    <path d="M 1.5 0 L 3 3 L 0 3 L 1.5 0 Z" stroke="none" fill="#4cf209"/>
  </g>
  <g id="Сгруппировать_6" data-name="Сгруппировать 6" transform="translate(-1004.661 -675)">
    <g id="Сгруппировать_5" data-name="Сгруппировать 5" transform="translate(3 -3)">
      <g id="Многоугольник_2" data-name="Многоугольник 2" transform="translate(1015.998 688.693) rotate(-14)" fill="#4cf209">
        <path d="M 6.039669036865234 4.5 L 0.9603310227394104 4.5 L 3.5 0.8719014525413513 L 6.039669036865234 4.5 Z" stroke="none"/>
        <path d="M 3.5 1.743788480758667 L 1.920651912689209 4 L 5.079348087310791 4 L 3.5 1.743788480758667 M 3.5 0 L 7 5 L 0 5 L 3.5 0 Z" stroke="none" fill="#4cf209"/>
      </g>
      <g id="Сгруппировать_4" data-name="Сгруппировать 4" transform="translate(31 -2)">
        <g id="iconfinder_General_-_Office_02_1471126" transform="translate(946.482 659.9)">
          <path id="Контур_118" data-name="Контур 118" d="M25.329,56.9H49.106a4.417,4.417,0,0,0,4.412-4.413V31c0-.026-.013-.047-.014-.073a1.123,1.123,0,0,0-.061-.3,1.023,1.023,0,0,0-.043-.113,1.131,1.131,0,0,0-.19-.282c-.014-.015-.022-.034-.037-.047s-.005-.008-.009-.012L43,20.42a1.166,1.166,0,0,0-.32-.211,1.061,1.061,0,0,0-.1-.034,1.13,1.13,0,0,0-.3-.062c-.025,0-.046-.014-.072-.014H25.329a1.15,1.15,0,0,0-1.15,1.151v34.5A1.15,1.15,0,0,0,25.329,56.9ZM43.356,23.948l6.15,5.9H45.467a2.113,2.113,0,0,1-2.111-2.112ZM26.48,22.4H41.054v5.334a4.418,4.418,0,0,0,4.413,4.413h5.75v20.34a2.113,2.113,0,0,1-2.11,2.112H26.48Z"/>
        </g>
        <g id="Сгруппировать_3" data-name="Сгруппировать 3">
          <g id="Контур_119" data-name="Контур 119" transform="translate(973 682.329)" fill="#4cf209">
            <path d="M 14.0287446975708 31.57165718078613 L 0.5000042319297791 31.57165718078613 L 0.5000042319297791 0.4999976456165314 L 14.0287446975708 0.4999976456165314 L 14.0287446975708 31.57165718078613 Z" stroke="none"/>
            <path d="M 1.000003814697266 0.9999980926513672 L 1.000003814697266 31.07165718078613 L 13.52874374389648 31.07165718078613 L 13.52874374389648 0.9999980926513672 L 1.000003814697266 0.9999980926513672 M 3.814697265625e-06 -3.814697265625e-06 L 14.5287446975708 -3.814697265625e-06 L 14.5287446975708 32.07165908813477 L 3.814697265625e-06 32.07165908813477 L 3.814697265625e-06 -3.814697265625e-06 Z" stroke="none" fill="#4cf209"/>
          </g>
          <path id="Контур_121" data-name="Контур 121" d="M0,0H14.69V22.8H0Z" transform="translate(983 692)" fill="#4cf209"/>
          <g id="Многоугольник_1" data-name="Многоугольник 1" transform="translate(984 689.452) rotate(-14)" fill="#4cf209">
            <path d="M 5.116899967193604 4.5 L 0.8830999732017517 4.5 L 3 0.971833348274231 L 5.116899967193604 4.5 Z" stroke="none"/>
            <path d="M 3 1.943650007247925 L 1.766190052032471 4 L 4.233809947967529 4 L 3 1.943650007247925 M 3 0 L 6 5 L 0 5 L 3 0 Z" stroke="none" fill="#4cf209"/>
          </g>
          <g id="Многоугольник_3" data-name="Многоугольник 3" transform="translate(980 685.693) rotate(-14)" fill="#4cf209">
            <path d="M 6.129478454589844 5.5 L 0.8705216646194458 5.5 L 3.5 0.9923228621482849 L 6.129478454589844 5.5 Z" stroke="none"/>
            <path d="M 3.5 1.984635829925537 L 1.741037368774414 5 L 5.258962631225586 5 L 3.5 1.984635829925537 M 3.5 0 L 7 6 L 0 6 L 3.5 0 Z" stroke="none" fill="#4cf209"/>
          </g>
        </g>
      </g>
    </g>
    <path id="Контур_120" data-name="Контур 120" d="M0,0H14.69V22.8H0Z" transform="translate(1007 687)" fill="#4cf209"/>
  </g>
</svg>
